<?xml version="1.0" standalone="no"?>
<!DOCTYPE svg PUBLIC "-//W3C//DTD SVG 20010904//EN"
 "http://www.w3.org/TR/2001/REC-SVG-20010904/DTD/svg10.dtd">
<svg version="1.0" xmlns="http://www.w3.org/2000/svg"
 width="100.000000pt" height="100.000000pt" viewBox="0 0 100.000000 100.000000"
 preserveAspectRatio="xMidYMid meet">
<metadata>
Created by potrace 1.11, written by Peter Selinger 2001-2013
</metadata>
<g transform="translate(0.000000,100.000000) scale(0.100000,-0.100000)"
fill="#000000" stroke="none">
<path d="M100 942 c-8 -3 -23 -15 -33 -26 -17 -19 -18 -39 -14 -271 3 -224 6
-255 25 -303 45 -114 116 -198 212 -250 61 -33 205 -65 254 -57 17 3 47 7 67
10 68 7 189 73 234 127 116 137 124 170 125 494 0 252 -3 270 -45 274 -71 7
-85 -16 -85 -146 0 -51 -5 -96 -10 -99 -6 -3 -10 -2 -10 3 0 17 -84 91 -135
118 -37 20 -68 28 -120 31 -103 6 -126 5 -141 -8 -10 -9 -14 -9 -14 0 0 20
-115 -47 -164 -95 l-46 -46 -1 84 c-1 83 -5 109 -24 139 -11 18 -52 30 -75 21z
m528 -256 c34 -18 85 -72 105 -111 29 -59 12 -215 -24 -215 -6 0 -7 6 -3 12
10 15 6 69 -8 122 -12 49 -60 99 -111 115 -32 11 -37 16 -32 34 4 12 9 30 11
40 6 21 26 22 62 3z m-296 -160 l19 -39 -24 -26 c-14 -14 -22 -32 -20 -38 3
-7 0 -13 -5 -13 -14 0 -22 26 -22 73 0 43 22 117 28 95 2 -7 13 -30 24 -52z
m218 -124 c-18 -32 -45 -40 -54 -16 -10 26 3 52 27 56 34 6 44 -9 27 -40z"/>
</g>
</svg>
