<svg xmlns="http://www.w3.org/2000/svg" width="1366" height="768"><path d="M208,986L60,987L649,1030Z" fill="#7495a8" stroke="#7495a8" stroke-width="1.51"/><path d="M510,-222L694,-190L862,-191Z" fill="#b5e1d4" stroke="#b5e1d4" stroke-width="1.51"/><path d="M-215,-272L124,-258L1113,-247Z" fill="#d5efd3" stroke="#d5efd3" stroke-width="1.51"/><path d="M510,-222L862,-191L1113,-247Z" fill="#addada" stroke="#addada" stroke-width="1.51"/><path d="M124,-258L510,-222L1113,-247Z" fill="#c1e6d4" stroke="#c1e6d4" stroke-width="1.51"/><path d="M1151,998L958,1039L1324,1014Z" fill="#206ca6" stroke="#206ca6" stroke-width="1.51"/><path d="M1324,1014L958,1039L1405,1038Z" fill="#1a64a1" stroke="#1a64a1" stroke-width="1.51"/><path d="M1113,-247L1301,-232L1477,-249Z" fill="#97b7d0" stroke="#97b7d0" stroke-width="1.51"/><path d="M1541,811L1482,847L1553,1015Z" fill="#095ea2" stroke="#095ea2" stroke-width="1.51"/><path d="M1541,811L1553,1015L1556,727Z" fill="#1060a2" stroke="#1060a2" stroke-width="1.51"/><path d="M1576,383L1464,560L1627,513Z" fill="#4184b0" stroke="#4184b0" stroke-width="1.51"/><path d="M1464,560L1556,727L1627,513Z" fill="#2e7cb0" stroke="#2e7cb0" stroke-width="1.51"/><path d="M1556,727L1553,1015L1627,513Z" fill="#1b68a5" stroke="#1b68a5" stroke-width="1.51"/><path d="M1113,-247L1477,-249L1629,-257Z" fill="#94aecd" stroke="#94aecd" stroke-width="1.51"/><path d="M-215,-272L1113,-247L1629,-257Z" fill="#afdbdd" stroke="#afdbdd" stroke-width="1.51"/><path d="M1487,-93L1529,-20L1629,-257Z" fill="#869eb8" stroke="#869eb8" stroke-width="1.51"/><path d="M1477,-249L1487,-93L1629,-257Z" fill="#8ca1be" stroke="#8ca1be" stroke-width="1.51"/><path d="M1529,-20L1575,72L1629,-257Z" fill="#829ab2" stroke="#829ab2" stroke-width="1.51"/><path d="M1481,221L1576,383L1630,237Z" fill="#618fa8" stroke="#618fa8" stroke-width="1.51"/><path d="M1575,72L1481,221L1630,237Z" fill="#6f94a7" stroke="#6f94a7" stroke-width="1.51"/><path d="M1576,383L1627,513L1630,237Z" fill="#5087a6" stroke="#5087a6" stroke-width="1.51"/><path d="M1629,-257L1575,72L1630,237Z" fill="#7c95aa" stroke="#7c95aa" stroke-width="1.51"/><path d="M1464,560L1406,711L1556,727Z" fill="#267bb3" stroke="#267bb3" stroke-width="1.51"/><path d="M1529,-20L1449,42L1575,72Z" fill="#7f9eb2" stroke="#7f9eb2" stroke-width="1.51"/><path d="M1449,42L1481,221L1575,72Z" fill="#789caf" stroke="#789caf" stroke-width="1.51"/><path d="M1481,221L1417,418L1576,383Z" fill="#5993b0" stroke="#5993b0" stroke-width="1.51"/><path d="M1417,418L1464,560L1576,383Z" fill="#478db5" stroke="#478db5" stroke-width="1.51"/><path d="M1482,847L1405,1038L1553,1015Z" fill="#0a599c" stroke="#0a599c" stroke-width="1.51"/><path d="M1406,711L1541,811L1556,727Z" fill="#1b6fab" stroke="#1b6fab" stroke-width="1.51"/><path d="M1406,711L1482,847L1541,811Z" fill="#176dac" stroke="#176dac" stroke-width="1.51"/><path d="M1487,-93L1449,42L1529,-20Z" fill="#83a1b8" stroke="#83a1b8" stroke-width="1.51"/><path d="M1301,-232L1339,-74L1477,-249Z" fill="#91afca" stroke="#91afca" stroke-width="1.51"/><path d="M1271,214L1417,418L1481,221Z" fill="#659fb6" stroke="#659fb6" stroke-width="1.51"/><path d="M1449,42L1296,55L1481,221Z" fill="#7ba5b7" stroke="#7ba5b7" stroke-width="1.51"/><path d="M1296,55L1271,214L1481,221Z" fill="#77a7b7" stroke="#77a7b7" stroke-width="1.51"/><path d="M1324,1014L1405,1038L1482,847Z" fill="#0b60a2" stroke="#0b60a2" stroke-width="1.51"/><path d="M1281,853L1324,1014L1482,847Z" fill="#0f6aac" stroke="#0f6aac" stroke-width="1.51"/><path d="M1406,711L1281,853L1482,847Z" fill="#1773b2" stroke="#1773b2" stroke-width="1.51"/><path d="M1477,-249L1339,-74L1487,-93Z" fill="#8ba9c3" stroke="#8ba9c3" stroke-width="1.51"/><path d="M1339,-74L1449,42L1487,-93Z" fill="#86a7be" stroke="#86a7be" stroke-width="1.51"/><path d="M1417,418L1309,543L1464,560Z" fill="#3f91be" stroke="#3f91be" stroke-width="1.51"/><path d="M1309,543L1406,711L1464,560Z" fill="#2f88be" stroke="#2f88be" stroke-width="1.51"/><path d="M1271,214L1237,379L1417,418Z" fill="#5fa3bb" stroke="#5fa3bb" stroke-width="1.51"/><path d="M1317,711L1281,853L1406,711Z" fill="#207cb6" stroke="#207cb6" stroke-width="1.51"/><path d="M1309,543L1317,711L1406,711Z" fill="#2b86bc" stroke="#2b86bc" stroke-width="1.51"/><path d="M1339,-74L1296,55L1449,42Z" fill="#86acbe" stroke="#86acbe" stroke-width="1.51"/><path d="M1237,379L1309,543L1417,418Z" fill="#4c9cbf" stroke="#4c9cbf" stroke-width="1.51"/><path d="M1309,543L1146,680L1317,711Z" fill="#308ec0" stroke="#308ec0" stroke-width="1.51"/><path d="M1281,853L1151,998L1324,1014Z" fill="#196ca9" stroke="#196ca9" stroke-width="1.51"/><path d="M1301,-232L1153,-50L1339,-74Z" fill="#90b6ca" stroke="#90b6ca" stroke-width="1.51"/><path d="M1153,-50L1296,55L1339,-74Z" fill="#8bb4c3" stroke="#8bb4c3" stroke-width="1.51"/><path d="M1146,680L1281,853L1317,711Z" fill="#2583ba" stroke="#2583ba" stroke-width="1.51"/><path d="M1113,-247L1153,-50L1301,-232Z" fill="#96bed0" stroke="#96bed0" stroke-width="1.51"/><path d="M1237,379L1096,519L1309,543Z" fill="#4aa1c4" stroke="#4aa1c4" stroke-width="1.51"/><path d="M1166,379L1096,519L1237,379Z" fill="#55a9c3" stroke="#55a9c3" stroke-width="1.51"/><path d="M1146,680L1111,846L1281,853Z" fill="#2584ba" stroke="#2584ba" stroke-width="1.51"/><path d="M1084,131L1271,214L1296,55Z" fill="#7fb3bd" stroke="#7fb3bd" stroke-width="1.51"/><path d="M1096,519L1146,680L1309,543Z" fill="#3b9bc6" stroke="#3b9bc6" stroke-width="1.51"/><path d="M1084,131L1112,211L1271,214Z" fill="#7bb5bc" stroke="#7bb5bc" stroke-width="1.51"/><path d="M1166,379L1237,379L1271,214Z" fill="#63aabd" stroke="#63aabd" stroke-width="1.51"/><path d="M1153,-50L1084,131L1296,55Z" fill="#8abac2" stroke="#8abac2" stroke-width="1.51"/><path d="M1112,211L1166,379L1271,214Z" fill="#6eb0bc" stroke="#6eb0bc" stroke-width="1.51"/><path d="M1111,846L1151,998L1281,853Z" fill="#1d78b4" stroke="#1d78b4" stroke-width="1.51"/><path d="M862,-191L972,-192L1113,-247Z" fill="#a3d0da" stroke="#a3d0da" stroke-width="1.51"/><path d="M987,-41L984,97L1084,131Z" fill="#90c6c8" stroke="#90c6c8" stroke-width="1.51"/><path d="M997,848L1111,846L1146,680Z" fill="#2e8bbe" stroke="#2e8bbe" stroke-width="1.51"/><path d="M1111,846L997,848L1151,998Z" fill="#277fb8" stroke="#277fb8" stroke-width="1.51"/><path d="M987,-41L1084,131L1153,-50Z" fill="#91c3c8" stroke="#91c3c8" stroke-width="1.51"/><path d="M1113,-247L972,-192L1153,-50Z" fill="#9bc6d4" stroke="#9bc6d4" stroke-width="1.51"/><path d="M972,-192L987,-41L1153,-50Z" fill="#99c9d1" stroke="#99c9d1" stroke-width="1.51"/><path d="M1038,480L1096,519L1166,379Z" fill="#54acc8" stroke="#54acc8" stroke-width="1.51"/><path d="M1037,395L1038,480L1166,379Z" fill="#5ab0c7" stroke="#5ab0c7" stroke-width="1.51"/><path d="M1112,211L1037,395L1166,379Z" fill="#68b3c2" stroke="#68b3c2" stroke-width="1.51"/><path d="M1008,209L1037,395L1112,211Z" fill="#74bac2" stroke="#74bac2" stroke-width="1.51"/><path d="M1096,519L959,649L1146,680Z" fill="#3fa0c9" stroke="#3fa0c9" stroke-width="1.51"/><path d="M959,649L997,848L1146,680Z" fill="#3696c4" stroke="#3696c4" stroke-width="1.51"/><path d="M997,848L958,1039L1151,998Z" fill="#2b7bb2" stroke="#2b7bb2" stroke-width="1.51"/><path d="M1084,131L1008,209L1112,211Z" fill="#7fbdc0" stroke="#7fbdc0" stroke-width="1.51"/><path d="M1038,480L959,649L1096,519Z" fill="#48aace" stroke="#48aace" stroke-width="1.51"/><path d="M984,97L1008,209L1084,131Z" fill="#86c2c4" stroke="#86c2c4" stroke-width="1.51"/><path d="M124,-258L276,-217L510,-222Z" fill="#d6efd3" stroke="#d6efd3" stroke-width="1.51"/><path d="M959,649L861,704L997,848Z" fill="#3c9dc8" stroke="#3c9dc8" stroke-width="1.51"/><path d="M1008,209L843,259L1037,395Z" fill="#76c1c6" stroke="#76c1c6" stroke-width="1.51"/><path d="M843,259L859,424L1037,395Z" fill="#6dc1ca" stroke="#6dc1ca" stroke-width="1.51"/><path d="M862,547L959,649L1038,480Z" fill="#4cb0d2" stroke="#4cb0d2" stroke-width="1.51"/><path d="M1037,395L859,424L1038,480Z" fill="#5eb8cc" stroke="#5eb8cc" stroke-width="1.51"/><path d="M859,424L862,547L1038,480Z" fill="#5ab8d0" stroke="#5ab8d0" stroke-width="1.51"/><path d="M972,-192L862,-191L987,-41Z" fill="#a1d2d8" stroke="#a1d2d8" stroke-width="1.51"/><path d="M862,-191L851,-23L987,-41Z" fill="#a0d3d4" stroke="#a0d3d4" stroke-width="1.51"/><path d="M851,-23L984,97L987,-41Z" fill="#98cecf" stroke="#98cecf" stroke-width="1.51"/><path d="M781,960L958,1039L997,848Z" fill="#3686b7" stroke="#3686b7" stroke-width="1.51"/><path d="M823,825L781,960L997,848Z" fill="#3e91be" stroke="#3e91be" stroke-width="1.51"/><path d="M861,704L823,825L997,848Z" fill="#3f99c4" stroke="#3f99c4" stroke-width="1.51"/><path d="M984,97L843,259L1008,209Z" fill="#85c7c5" stroke="#85c7c5" stroke-width="1.51"/><path d="M792,111L843,259L984,97Z" fill="#8dcdc6" stroke="#8dcdc6" stroke-width="1.51"/><path d="M781,960L649,1030L958,1039Z" fill="#4483ac" stroke="#4483ac" stroke-width="1.51"/><path d="M851,-23L792,111L984,97Z" fill="#98d1ca" stroke="#98d1ca" stroke-width="1.51"/><path d="M862,547L861,704L959,649Z" fill="#4babcd" stroke="#4babcd" stroke-width="1.51"/><path d="M792,111L693,237L843,259Z" fill="#8ed0c0" stroke="#8ed0c0" stroke-width="1.51"/><path d="M693,237L682,405L843,259Z" fill="#83cdc3" stroke="#83cdc3" stroke-width="1.51"/><path d="M694,-190L662,-72L851,-23Z" fill="#abdccf" stroke="#abdccf" stroke-width="1.51"/><path d="M843,259L682,405L859,424Z" fill="#76c7c7" stroke="#76c7c7" stroke-width="1.51"/><path d="M720,661L823,825L861,704Z" fill="#4ea5c4" stroke="#4ea5c4" stroke-width="1.51"/><path d="M859,424L725,504L862,547Z" fill="#63bdcd" stroke="#63bdcd" stroke-width="1.51"/><path d="M720,661L861,704L862,547Z" fill="#54aeca" stroke="#54aeca" stroke-width="1.51"/><path d="M725,504L720,661L862,547Z" fill="#5eb9cd" stroke="#5eb9cd" stroke-width="1.51"/><path d="M694,-190L851,-23L862,-191Z" fill="#aadad4" stroke="#aadad4" stroke-width="1.51"/><path d="M682,405L725,504L859,424Z" fill="#6fc3c9" stroke="#6fc3c9" stroke-width="1.51"/><path d="M703,139L693,237L792,111Z" fill="#96d4c1" stroke="#96d4c1" stroke-width="1.51"/><path d="M720,661L691,822L823,825Z" fill="#52a3c1" stroke="#52a3c1" stroke-width="1.51"/><path d="M662,-72L792,111L851,-23Z" fill="#a3d8ca" stroke="#a3d8ca" stroke-width="1.51"/><path d="M662,-72L703,139L792,111Z" fill="#a2d9c5" stroke="#a2d9c5" stroke-width="1.51"/><path d="M691,822L781,960L823,825Z" fill="#4b96bc" stroke="#4b96bc" stroke-width="1.51"/><path d="M691,822L649,1030L781,960Z" fill="#4f91b3" stroke="#4f91b3" stroke-width="1.51"/><path d="M-123,964L-223,967L60,987Z" fill="#89a0bc" stroke="#89a0bc" stroke-width="1.51"/><path d="M369,928L208,986L649,1030Z" fill="#6e95a7" stroke="#6e95a7" stroke-width="1.51"/><path d="M561,929L649,1030L691,822Z" fill="#5895b2" stroke="#5895b2" stroke-width="1.51"/><path d="M584,276L682,405L693,237Z" fill="#89d1c0" stroke="#89d1c0" stroke-width="1.51"/><path d="M662,-72L573,-11L703,139Z" fill="#abddc6" stroke="#abddc6" stroke-width="1.51"/><path d="M544,823L691,822L720,661Z" fill="#5da7be" stroke="#5da7be" stroke-width="1.51"/><path d="M528,633L544,823L720,661Z" fill="#66b0c0" stroke="#66b0c0" stroke-width="1.51"/><path d="M682,405L480,515L725,504Z" fill="#77c7c7" stroke="#77c7c7" stroke-width="1.51"/><path d="M480,515L528,633L725,504Z" fill="#74c3c9" stroke="#74c3c9" stroke-width="1.51"/><path d="M528,633L720,661L725,504Z" fill="#67bbc8" stroke="#67bbc8" stroke-width="1.51"/><path d="M584,276L549,359L682,405Z" fill="#89d0c0" stroke="#89d0c0" stroke-width="1.51"/><path d="M584,276L693,237L703,139Z" fill="#95d5bc" stroke="#95d5bc" stroke-width="1.51"/><path d="M485,125L584,276L703,139Z" fill="#9fd9bb" stroke="#9fd9bb" stroke-width="1.51"/><path d="M573,-11L485,125L703,139Z" fill="#aaddc0" stroke="#aaddc0" stroke-width="1.51"/><path d="M549,359L480,515L682,405Z" fill="#82cdc3" stroke="#82cdc3" stroke-width="1.51"/><path d="M544,823L561,929L691,822Z" fill="#5f9fb8" stroke="#5f9fb8" stroke-width="1.51"/><path d="M510,-222L662,-72L694,-190Z" fill="#b7e3d0" stroke="#b7e3d0" stroke-width="1.51"/><path d="M561,929L369,928L649,1030Z" fill="#6394ab" stroke="#6394ab" stroke-width="1.51"/><path d="M510,-222L573,-11L662,-72Z" fill="#b8e3cb" stroke="#b8e3cb" stroke-width="1.51"/><path d="M528,633L385,779L544,823Z" fill="#70afba" stroke="#70afba" stroke-width="1.51"/><path d="M510,-222L419,-18L573,-11Z" fill="#bde5c7" stroke="#bde5c7" stroke-width="1.51"/><path d="M419,-18L485,125L573,-11Z" fill="#b7e3bf" stroke="#b7e3bf" stroke-width="1.51"/><path d="M333,269L549,359L584,276Z" fill="#9ad7bb" stroke="#9ad7bb" stroke-width="1.51"/><path d="M485,125L333,269L584,276Z" fill="#a5dbb7" stroke="#a5dbb7" stroke-width="1.51"/><path d="M359,702L385,779L528,633Z" fill="#79b6bc" stroke="#79b6bc" stroke-width="1.51"/><path d="M394,478L480,515L549,359Z" fill="#89cec1" stroke="#89cec1" stroke-width="1.51"/><path d="M544,823L369,928L561,929Z" fill="#699eb3" stroke="#699eb3" stroke-width="1.51"/><path d="M328,-162L419,-18L510,-222Z" fill="#c7e9c9" stroke="#c7e9c9" stroke-width="1.51"/><path d="M385,779L369,928L544,823Z" fill="#72a5b4" stroke="#72a5b4" stroke-width="1.51"/><path d="M350,414L394,478L549,359Z" fill="#91d2bf" stroke="#91d2bf" stroke-width="1.51"/><path d="M333,269L350,414L549,359Z" fill="#9ad7bc" stroke="#9ad7bc" stroke-width="1.51"/><path d="M419,-18L389,97L485,125Z" fill="#b8e3bc" stroke="#b8e3bc" stroke-width="1.51"/><path d="M480,515L359,702L528,633Z" fill="#7cbfc1" stroke="#7cbfc1" stroke-width="1.51"/><path d="M394,478L359,702L480,515Z" fill="#84c7c5" stroke="#84c7c5" stroke-width="1.51"/><path d="M389,97L333,269L485,125Z" fill="#b1e0b8" stroke="#b1e0b8" stroke-width="1.51"/><path d="M276,-217L328,-162L510,-222Z" fill="#cfeccf" stroke="#cfeccf" stroke-width="1.51"/><path d="M280,628L359,702L394,478Z" fill="#87c4c5" stroke="#87c4c5" stroke-width="1.51"/><path d="M283,542L280,628L394,478Z" fill="#8dcbc9" stroke="#8dcbc9" stroke-width="1.51"/><path d="M248,854L369,928L385,779Z" fill="#79a7b7" stroke="#79a7b7" stroke-width="1.51"/><path d="M249,111L333,269L389,97Z" fill="#b7e3bb" stroke="#b7e3bb" stroke-width="1.51"/><path d="M328,-162L274,-115L419,-18Z" fill="#caebc9" stroke="#caebc9" stroke-width="1.51"/><path d="M249,111L389,97L419,-18Z" fill="#bfe6bf" stroke="#bfe6bf" stroke-width="1.51"/><path d="M274,-115L249,111L419,-18Z" fill="#c7e9c4" stroke="#c7e9c4" stroke-width="1.51"/><path d="M350,414L283,542L394,478Z" fill="#92d0c4" stroke="#92d0c4" stroke-width="1.51"/><path d="M359,702L248,854L385,779Z" fill="#7db0bb" stroke="#7db0bb" stroke-width="1.51"/><path d="M249,111L256,273L333,269Z" fill="#b4e2ba" stroke="#b4e2ba" stroke-width="1.51"/><path d="M238,412L283,542L350,414Z" fill="#98d3c5" stroke="#98d3c5" stroke-width="1.51"/><path d="M333,269L256,273L350,414Z" fill="#a5dbbe" stroke="#a5dbbe" stroke-width="1.51"/><path d="M256,273L238,412L350,414Z" fill="#a1dac1" stroke="#a1dac1" stroke-width="1.51"/><path d="M248,854L208,986L369,928Z" fill="#7aa0b3" stroke="#7aa0b3" stroke-width="1.51"/><path d="M280,628L248,854L359,702Z" fill="#82b7bf" stroke="#82b7bf" stroke-width="1.51"/><path d="M-215,-272L-46,-225L124,-258Z" fill="#e9f7e3" stroke="#e9f7e3" stroke-width="1.51"/><path d="M124,-51L249,111L274,-115Z" fill="#cfecc8" stroke="#cfecc8" stroke-width="1.51"/><path d="M130,663L248,854L280,628Z" fill="#89bac2" stroke="#89bac2" stroke-width="1.51"/><path d="M276,-217L274,-115L328,-162Z" fill="#d2edcf" stroke="#d2edcf" stroke-width="1.51"/><path d="M130,663L74,796L248,854Z" fill="#8ab5c2" stroke="#8ab5c2" stroke-width="1.51"/><path d="M124,-51L101,86L249,111Z" fill="#ceecc6" stroke="#ceecc6" stroke-width="1.51"/><path d="M124,-258L274,-115L276,-217Z" fill="#d9f0d3" stroke="#d9f0d3" stroke-width="1.51"/><path d="M238,412L70,564L283,542Z" fill="#9bd2ca" stroke="#9bd2ca" stroke-width="1.51"/><path d="M130,663L280,628L283,542Z" fill="#8fc6c8" stroke="#8fc6c8" stroke-width="1.51"/><path d="M70,564L130,663L283,542Z" fill="#95cacc" stroke="#95cacc" stroke-width="1.51"/><path d="M249,111L101,86L256,273Z" fill="#c0e7c0" stroke="#c0e7c0" stroke-width="1.51"/><path d="M101,86L71,287L256,273Z" fill="#bce5bf" stroke="#bce5bf" stroke-width="1.51"/><path d="M124,-258L124,-51L274,-115Z" fill="#d9f0d2" stroke="#d9f0d2" stroke-width="1.51"/><path d="M111,390L238,412L256,273Z" fill="#a9ddc4" stroke="#a9ddc4" stroke-width="1.51"/><path d="M111,390L70,564L238,412Z" fill="#a2d7ca" stroke="#a2d7ca" stroke-width="1.51"/><path d="M71,287L111,390L256,273Z" fill="#b0e0c4" stroke="#b0e0c4" stroke-width="1.51"/><path d="M74,796L60,987L208,986Z" fill="#83a4b9" stroke="#83a4b9" stroke-width="1.51"/><path d="M74,796L208,986L248,854Z" fill="#83a8bb" stroke="#83a8bb" stroke-width="1.51"/><path d="M-54,287L71,287L101,86Z" fill="#c0e7c4" stroke="#c0e7c4" stroke-width="1.51"/><path d="M-69,374L70,564L111,390Z" fill="#a7d9ce" stroke="#a7d9ce" stroke-width="1.51"/><path d="M-66,-64L101,86L124,-51Z" fill="#d6efcf" stroke="#d6efcf" stroke-width="1.51"/><path d="M124,-258L-46,-225L124,-51Z" fill="#e0f3d9" stroke="#e0f3d9" stroke-width="1.51"/><path d="M-46,-225L-66,-64L124,-51Z" fill="#def2d8" stroke="#def2d8" stroke-width="1.51"/><path d="M-27,734L74,796L130,663Z" fill="#8fbbc8" stroke="#8fbbc8" stroke-width="1.51"/><path d="M70,564L-27,734L130,663Z" fill="#94c4cc" stroke="#94c4cc" stroke-width="1.51"/><path d="M-66,-64L-96,37L101,86Z" fill="#d7efd0" stroke="#d7efd0" stroke-width="1.51"/><path d="M-76,820L60,987L74,796Z" fill="#89acc3" stroke="#89acc3" stroke-width="1.51"/><path d="M-96,37L-54,287L101,86Z" fill="#cbebca" stroke="#cbebca" stroke-width="1.51"/><path d="M71,287L-69,374L111,390Z" fill="#b1e0ca" stroke="#b1e0ca" stroke-width="1.51"/><path d="M-69,374L-86,574L70,564Z" fill="#a4d6d4" stroke="#a4d6d4" stroke-width="1.51"/><path d="M-76,820L-123,964L60,987Z" fill="#89a6c0" stroke="#89a6c0" stroke-width="1.51"/><path d="M-86,574L-27,734L70,564Z" fill="#99c9d2" stroke="#99c9d2" stroke-width="1.51"/><path d="M-54,287L-69,374L71,287Z" fill="#b7e3cb" stroke="#b7e3cb" stroke-width="1.51"/><path d="M-27,734L-76,820L74,796Z" fill="#8fb6c8" stroke="#8fb6c8" stroke-width="1.51"/><path d="M-96,37L-164,85L-54,287Z" fill="#cfedce" stroke="#cfedce" stroke-width="1.51"/><path d="M-254,494L-86,574L-69,374Z" fill="#abdad8" stroke="#abdad8" stroke-width="1.51"/><path d="M-164,85L-205,178L-54,287Z" fill="#ccebcd" stroke="#ccebcd" stroke-width="1.51"/><path d="M-215,-272L-66,-64L-46,-225Z" fill="#e8f6e1" stroke="#e8f6e1" stroke-width="1.51"/><path d="M-207,654L-76,820L-27,734Z" fill="#95bdcf" stroke="#95bdcf" stroke-width="1.51"/><path d="M-86,574L-207,654L-27,734Z" fill="#9cc7d3" stroke="#9cc7d3" stroke-width="1.51"/><path d="M-181,871L-123,964L-76,820Z" fill="#8facc8" stroke="#8facc8" stroke-width="1.51"/><path d="M-215,-272L-240,-39L-66,-64Z" fill="#e6f6e0" stroke="#e6f6e0" stroke-width="1.51"/><path d="M-268,347L-69,374L-54,287Z" fill="#bae4d1" stroke="#bae4d1" stroke-width="1.51"/><path d="M-205,178L-268,347L-54,287Z" fill="#c4e8d0" stroke="#c4e8d0" stroke-width="1.51"/><path d="M-207,654L-181,871L-76,820Z" fill="#95b9cf" stroke="#95b9cf" stroke-width="1.51"/><path d="M-268,347L-254,494L-69,374Z" fill="#b5e1d7" stroke="#b5e1d7" stroke-width="1.51"/><path d="M-240,-39L-96,37L-66,-64Z" fill="#def2d8" stroke="#def2d8" stroke-width="1.51"/><path d="M-254,494L-207,654L-86,574Z" fill="#a5d2dc" stroke="#a5d2dc" stroke-width="1.51"/><path d="M-240,-39L-164,85L-96,37Z" fill="#ddf2d6" stroke="#ddf2d6" stroke-width="1.51"/><path d="M-181,871L-223,967L-123,964Z" fill="#8fa7c4" stroke="#8fa7c4" stroke-width="1.51"/><path d="M-240,-39L-205,178L-164,85Z" fill="#dbf1d5" stroke="#dbf1d5" stroke-width="1.51"/><path d="M-207,654L-223,967L-181,871Z" fill="#95b4ce" stroke="#95b4ce" stroke-width="1.51"/><path d="M-254,494L-223,967L-207,654Z" fill="#9dc4d5" stroke="#9dc4d5" stroke-width="1.51"/><path d="M-240,-39L-268,347L-205,178Z" fill="#d3eed2" stroke="#d3eed2" stroke-width="1.51"/><path d="M-254,494L-268,347L-223,967Z" fill="#a6d0dd" stroke="#a6d0dd" stroke-width="1.51"/></svg>